<?xml version="1.0" encoding="UTF-8"?>
<svg version="1.1" xmlns="http://www.w3.org/2000/svg" width="512" height="512">
<path d="M0 0 C2.61954637 1.28409136 4.93190765 2.57285612 7.375 4.125 C30.86987944 18.17705416 57.04263134 20.60340373 83.375 14.4375 C93.63858232 11.53500306 104.11388819 6.92407454 113 1 C121.57307714 -0.09554536 127.81054178 3.16110143 135.375 6.875 C136.62126707 7.47259561 137.86801737 8.06918443 139.11523438 8.66479492 C142.75830155 10.41401726 146.38089049 12.20171335 150 14 C151.46421387 14.72678955 151.46421387 14.72678955 152.95800781 15.46826172 C176.05872937 27.04392449 198.84158299 41.20797146 209 66 C211.39861589 73.26756707 211.33246926 80.32921013 211.3125 87.9375 C211.32861328 89.16146484 211.34472656 90.38542969 211.36132812 91.64648438 C211.36714158 102.45369282 209.70206049 111.06403746 202 119 C193.59835836 125.90189504 186.01933067 127.30166779 175.42410278 127.26069641 C174.37091539 127.26452196 173.317728 127.26834751 172.23262584 127.27228898 C168.70988312 127.28259297 165.18730418 127.27863171 161.66455078 127.2746582 C159.1362798 127.27900611 156.60801014 127.28418952 154.07974243 127.29014587 C147.92878037 127.30214806 141.7778785 127.30468827 135.62690701 127.30234561 C130.62571581 127.30056071 125.62453785 127.30231578 120.62334824 127.30657005 C119.55460384 127.30746284 119.55460384 127.30746284 118.46426865 127.30837366 C117.01670496 127.30958544 115.56914128 127.31079958 114.12157761 127.31201603 C100.55366018 127.32288635 86.98576763 127.32073152 73.41784881 127.31463119 C61.01507829 127.30946282 48.61238632 127.32071624 36.20963134 127.33972941 C23.46394897 127.35911796 10.71830375 127.367362 -2.02739346 127.36360615 C-9.17890135 127.36169561 -16.33034239 127.36416732 -23.48183823 127.37832069 C-30.20745426 127.39149687 -36.93288776 127.38896067 -43.65851212 127.37590981 C-46.12517602 127.37354313 -48.59185096 127.37628194 -51.0585022 127.38453293 C-54.42922902 127.39499398 -57.79942755 127.38690425 -61.1701355 127.3742218 C-62.14300975 127.38159609 -63.115884 127.38897037 -64.11823928 127.39656812 C-73.81838588 127.31994519 -81.94612696 124.84596941 -89 118 C-96.70741063 108.61780834 -97.36249801 100.18938386 -97.375 88.375 C-97.39949219 87.18003906 -97.42398438 85.98507812 -97.44921875 84.75390625 C-97.50567988 67.38270012 -90.93498479 54.23440827 -79.04296875 41.94921875 C-62.01492211 25.05330051 -38.69494563 14.39913603 -17.25 4.375 C-16.333396 3.93679932 -15.41679199 3.49859863 -14.47241211 3.04711914 C-9.50780627 0.7731454 -5.55710102 -0.88913616 0 0 Z " fill="#000000" transform="translate(199,283)"/>
<path d="M0 0 C3.67103306 3.00140543 6.97750934 6.2900345 10.26367188 9.70410156 C11.00101563 10.43371094 11.73835937 11.16332031 12.49804688 11.91503906 C28.49216616 28.59107816 34.89539415 52.617988 34.44335938 75.21972656 C33.31176369 97.16284292 25.74173512 116.14569525 11.26367188 132.70410156 C10.37615234 133.73470703 10.37615234 133.73470703 9.47070312 134.78613281 C-3.02399984 148.29319977 -20.81964276 155.70489776 -39.00195312 156.92285156 C-52.05900045 157.27416225 -64.21187758 154.90821528 -75.73632812 148.70410156 C-76.57679688 148.26195312 -77.41726562 147.81980469 -78.28320312 147.36425781 C-98.83589864 135.84325924 -111.14232637 116.12849963 -117.51367188 94.00488281 C-118.01517117 91.90737116 -118.41260155 89.83565189 -118.73632812 87.70410156 C-118.90068359 86.70830078 -118.90068359 86.70830078 -119.06835938 85.69238281 C-122.40131943 61.65063094 -116.92509667 37.43820533 -102.73632812 17.70410156 C-99.91793643 14.16709643 -96.92500861 10.90885943 -93.73632812 7.70410156 C-93.00027344 6.93324219 -92.26421875 6.16238281 -91.50585938 5.36816406 C-67.53264318 -18.16333458 -26.7436108 -19.95993899 0 0 Z " fill="#000000" transform="translate(298.736328125,115.2958984375)"/>
</svg>
